<svg xmlns="http://www.w3.org/2000/svg" width="46.016" height="25.927" viewBox="0 0 46.016 25.927">
  <path id="Android_Robot" d="M33.907,19.332a1.916,1.916,0,1,1,1.916-1.916,1.916,1.916,0,0,1-1.916,1.916m-21.179,0a1.916,1.916,0,1,1,1.916-1.916,1.916,1.916,0,0,1-1.916,1.916M34.594,7.79l3.829-6.632a.8.8,0,0,0-1.38-.8L33.166,7.076a24.072,24.072,0,0,0-19.7,0L9.592.36a.8.8,0,0,0-1.38.8l3.83,6.633A22.611,22.611,0,0,0,.31,25.889H46.326A22.613,22.613,0,0,0,34.594,7.79" transform="translate(-0.31 0.038)" fill="#2f4550"/>
</svg>
