<svg xmlns="http://www.w3.org/2000/svg" width="32.776" height="40.253" viewBox="0 0 32.776 40.253">
  <path id="apple"
    d="M40.8,23.268a8.9,8.9,0,0,0,5.4,8.145,22.028,22.028,0,0,1-2.786,5.725c-1.678,2.452-3.419,4.9-6.162,4.946-2.7.049-3.562-1.6-6.644-1.6s-4.043,1.547-6.595,1.648c-2.648.1-4.664-2.652-6.356-5.095-3.457-5-6.1-14.122-2.551-20.281a9.855,9.855,0,0,1,8.329-5.045c2.6-.05,5.054,1.749,6.643,1.749s4.571-2.163,7.706-1.846a9.4,9.4,0,0,1,7.362,3.993,9.105,9.105,0,0,0-4.35,7.659M35.73,8.31a8.868,8.868,0,0,0,2.094-6.427,9.022,9.022,0,0,0-5.93,3.051,8.425,8.425,0,0,0-2.136,6.226A7.465,7.465,0,0,0,35.73,8.31"
    transform="translate(-13.421 -1.883)" fill="currentColor" />
</svg>